<?xml version="1.0" encoding="UTF-8"?>
<svg xmlns="http://www.w3.org/2000/svg" viewBox="0 0 1920 1080">
  <g id="PORT">
    <g>
      <path d="M372.81,443.24c3.56,0,6.95-.42,10.18-1.27,3.22-.84,6.06-2.46,8.51-4.83,2.45-2.37,4.39-5.67,5.84-9.92,1.44-4.23,2.17-9.92,2.17-17.03V146.28c0-7.12-.73-12.79-2.17-17.03-1.45-4.23-3.4-7.54-5.84-9.92-2.45-2.37-5.29-3.98-8.51-4.83-3.23-.84-6.62-1.27-10.18-1.27v-5.08c6.68,0,12.18.09,16.52.25,4.34.17,8.12.25,11.35.25s6.06.09,8.51.25c2.45.17,5.01.25,7.68.25,5.34,0,11.73-.42,19.19-1.27,7.45-.84,14.74-1.27,21.86-1.27,26.92,0,47.28,7.37,61.08,22.12,13.79,14.75,20.69,35.85,20.69,63.31,0,34.24-7.18,59.16-21.53,74.75-14.35,15.6-34.32,23.39-59.91,23.39-4.23,0-8.4-.17-12.52-.51-4.12-.33-8.18-.84-12.18-1.53v122.04c0,7.12.72,12.8,2.17,17.03,1.44,4.24,3.39,7.55,5.84,9.92,2.45,2.38,5.28,3.99,8.51,4.83,3.22.85,6.62,1.27,10.18,1.27v5.08c-6.68,0-12.02-.08-16.02-.25-4-.17-7.46-.42-10.35-.76-2.89-.33-5.62-.59-8.18-.76-2.56-.17-5.62-.25-9.18-.25-3.79,0-6.9.09-9.35.25-2.45.17-5.12.43-8.01.76-2.89.34-6.34.6-10.35.76-4,.17-9.34.25-16.02.25v-5.08ZM433.55,279.01c3.11.68,6.17,1.18,9.18,1.52,3,.33,5.84.5,8.51.5,16.46,0,29.04-6.74,37.71-20.21,8.68-13.47,13.02-35.38,13.02-65.7,0-24.93-4.29-44.39-12.85-58.37-8.57-13.98-20.53-20.98-35.88-20.98-2.23,0-4.51.25-6.84.76-2.34.51-4.45,1.35-6.34,2.53-1.89,1.18-3.45,3.03-4.67,5.55-1.23,2.53-1.84,5.82-1.84,9.86v144.54Z" style="fill: #e48300;"/>
      <path d="M789.66,229.67c0,26.44-3.17,52.97-9.51,79.58-6.34,26.62-15.13,50.68-26.37,72.21-11.24,21.53-24.65,38.99-40.22,52.37-15.58,13.4-32.71,20.08-51.4,20.08-10.68,0-20.75-2.63-30.2-7.88-9.46-5.25-17.8-13.22-25.03-23.9-7.23-10.68-12.96-24.32-17.19-40.93-4.23-16.61-6.34-36.27-6.34-58.98,0-32.88,4-62.88,12.02-90,8.01-27.12,18.3-50.42,30.87-69.92,12.57-19.49,26.53-34.58,41.89-45.26s30.37-16.02,45.06-16.02c12.23,0,23.14,3.39,32.71,10.17,9.56,6.79,17.57,16.02,24.03,27.71,6.45,11.7,11.35,25.34,14.69,40.93,3.34,15.6,5.01,32.21,5.01,49.83ZM757.95,206.5c0-17.23-1.23-31.93-3.67-44.1-2.45-12.16-5.67-22.14-9.68-29.91-4-7.77-8.68-13.44-14.02-16.99-5.34-3.54-10.79-5.32-16.35-5.32-8.9,0-17.52,3.55-25.87,10.65-8.34,7.1-16.13,16.65-23.36,28.64-7.23,12-13.8,25.94-19.69,41.82-5.9,15.89-10.9,32.61-15.02,50.19-4.12,17.57-7.34,35.49-9.68,53.74-2.34,18.25-3.5,35.65-3.5,52.21,0,19.61,1.39,35.75,4.17,48.42,2.78,12.67,6.34,22.64,10.68,29.91,4.34,7.27,9.12,12.26,14.35,14.96,5.23,2.7,10.29,4.05,15.19,4.05,9.12,0,17.86-3.46,26.2-10.39s16.07-16.39,23.2-28.39c7.12-12,13.57-25.93,19.36-41.82,5.78-15.88,10.73-32.61,14.85-50.19,4.11-17.57,7.29-35.57,9.51-53.99,2.22-18.42,3.34-36.25,3.34-53.49Z" style="fill: #e48300;"/>
      <path d="M788.66,108.15c6.68,0,12.02.09,16.02.25,4.01.17,7.4.25,10.18.25s5.39.09,7.84.25c2.45.17,5.45.25,9.01.25,5.78,0,12.52-.42,20.19-1.27,7.68-.84,16.19-1.27,25.53-1.27,8.68,0,17.74,1.02,27.2,3.05,9.45,2.03,18.13,6.1,26.03,12.2,7.9,6.1,14.4,14.83,19.52,26.19,5.12,11.36,7.68,26.36,7.68,45,0,12.55-1.67,23.9-5.01,34.07-3.34,10.17-7.73,18.99-13.18,26.44-5.46,7.46-11.68,13.65-18.69,18.56-7.01,4.92-14.18,8.22-21.53,9.92,2.22,4.41,6.12,11.7,11.68,21.87,5.56,10.17,11.79,21.61,18.69,34.32,6.89,12.71,14.07,25.77,21.53,39.15,7.45,13.4,14.18,25.35,20.19,35.85,5.12,8.82,9.96,16.02,14.52,21.61,4.56,5.59,9.62,8.39,15.19,8.39v5.08c-4.9,0-8.84-.08-11.85-.25-3-.17-5.51-.33-7.51-.51-2-.17-3.89-.33-5.67-.51-1.78-.17-4-.25-6.68-.25s-4.95.09-6.84.25c-1.89.17-3.67.34-5.34.51-1.67.17-3.5.34-5.51.51-2,.17-4.56.25-7.68.25-6.9-13.22-13.24-25.68-19.02-37.37-5.79-11.69-11.46-23.14-17.02-34.32-5.56-11.19-11.24-22.45-17.02-33.81-5.79-11.35-12.01-23.47-18.69-36.36-3.34-6.44-6.23-10.93-8.68-13.47-2.45-2.54-6.23-3.81-11.35-3.81h-3v121.02c0,7.12.72,12.8,2.17,17.03,1.44,4.24,3.39,7.55,5.84,9.92,2.45,2.38,5.28,3.99,8.51,4.83,3.22.85,6.62,1.27,10.18,1.27v5.08c-6.68,0-12.02-.08-16.02-.25-4-.17-7.46-.42-10.35-.76-2.89-.33-5.62-.59-8.18-.76-2.56-.17-5.62-.25-9.18-.25-3.79,0-6.9.09-9.35.25-2.45.17-5.12.43-8.01.76-2.89.34-6.34.6-10.35.76-4,.17-9.34.25-16.02.25v-5.08c3.56,0,6.95-.42,10.18-1.27,3.22-.84,6.06-2.46,8.51-4.83,2.45-2.37,4.39-5.67,5.84-9.92,1.44-4.23,2.17-9.92,2.17-17.03V146.28c0-7.12-.73-12.79-2.17-17.03-1.45-4.23-3.4-7.54-5.84-9.92-2.45-2.37-5.29-3.98-8.51-4.83-3.23-.84-6.62-1.27-10.18-1.27v-5.08ZM849.4,280.01h16.69c18.02,0,31.48-7.45,40.38-22.37,8.9-14.91,13.35-36.78,13.35-65.59,0-10.5-1.12-20.34-3.34-29.49-2.23-9.15-5.45-17.2-9.68-24.15-4.23-6.94-9.46-12.46-15.69-16.53-6.23-4.07-13.24-6.1-21.03-6.1-1.78,0-3.9.09-6.34.25-2.45.17-4.73.94-6.84,2.29-2.12,1.36-3.9,3.31-5.34,5.85-1.45,2.54-2.17,6.02-2.17,10.42v145.43Z" style="fill: #e48300;"/>
    </g>
    <path d="M1111.54,111.76h-34.34c-12.92,0-24.03,5.88-33.32,17.61-9.3,11.75-16.44,27.12-21.42,46.11h-3.06l13.26-72.53c9.74-.34,17.91-.52,24.48-.52h31.45c3.74,0,7.42.09,11.05.26,3.62.18,7.59.26,11.9.26h28.9c3.4,0,6.8-.08,10.2-.26,3.4-.17,7.25-.26,11.56-.26h32.47c6.23,0,13.54.18,21.93.52v73.04h-2.72c-.46-7.59-1.25-15.28-2.38-23.05-1.14-7.77-2.95-14.68-5.44-20.72-2.5-6.04-5.78-10.96-9.86-14.76-4.08-3.8-9.07-5.7-14.96-5.7h-36.04l-50.32,292.7c-.46,3.11-.91,6.31-1.36,9.58-.46,3.29-.68,6.14-.68,8.55,0,5.18.68,9.15,2.04,11.92,1.36,2.77,3.11,4.92,5.27,6.48,2.15,1.55,4.64,2.51,7.48,2.85,2.83.35,5.61.52,8.33.52l-1.02,5.18c-5.22,0-9.75-.08-13.6-.26-3.86-.17-7.37-.43-10.54-.78-3.18-.34-6.29-.6-9.35-.78-3.06-.17-6.41-.26-10.03-.26-3.86,0-7.31.09-10.37.26-3.06.18-6.29.44-9.69.78-3.4.35-7.03.61-10.88.78-3.86.18-8.28.26-13.26.26l1.02-5.18c9.97,0,17.39-2.85,22.27-8.55,4.87-5.7,8.55-16.14,11.05-31.34l49.98-292.7Z" style="fill: #e48300;"/>
  </g>
  <g id="FOLIO">
    <rect x="1237.46" y="-116.67" width="249.54" height="399.8" style="fill: none;"/>
    <path d="M644.56,627.5l-22.96,131.03c-.44,2.99-.88,6.07-1.31,9.22-.44,3.15-.66,5.89-.66,8.22,0,4.98.66,8.81,1.97,11.46,1.31,2.65,3,4.73,5.08,6.22,2.08,1.5,4.48,2.41,7.21,2.74,2.73.34,5.41.5,8.03.5l-.98,4.98c-5.03,0-9.4-.08-13.12-.25-3.72-.16-7.11-.41-10.17-.75-3.06-.33-6.07-.58-9.02-.75-2.95-.16-6.18-.25-9.67-.25-3.72,0-7.05.09-10,.25-2.95.17-6.07.42-9.35.75-3.28.33-6.78.58-10.49.75-3.72.17-7.98.25-12.79.25l.98-5c9.62,0,16.78-2.75,21.48-8.24,4.7-5.5,8.25-15.57,10.66-30.23l42.63-247.32c.44-2.66.87-5.66,1.31-8.99.44-3.33.66-6.16.66-8.49,0-5-.66-8.82-1.97-11.49-1.31-2.66-3.01-4.75-5.08-6.25-2.08-1.5-4.48-2.41-7.21-2.75-2.74-.33-5.41-.5-8.04-.5l.98-5c8.74,0,15.74.17,20.99.5,5.25.33,10.82.5,16.72.5,8.31,0,16.5-.41,24.6-1.25,8.09-.83,16.18-1.25,24.27-1.25,9.84,0,18.96.25,27.38.75,8.41.5,17.54.92,27.38,1.25l6.56,72.95h-3.28c-1.97-13.42-4.48-24.49-7.54-33.22-3.06-8.73-6.72-15.61-10.99-20.64-4.26-5.03-9.29-8.56-15.08-10.57-5.8-2.01-12.63-3.02-20.5-3.02-5.69,0-11.59.34-17.71,1.01-6.12.67-11.26,1.83-15.41,3.5l-24.27,140.38h21.32c6.34,0,11.75-.66,16.23-2,4.48-1.33,8.31-3.83,11.48-7.5,3.17-3.66,5.79-8.82,7.87-15.49,2.08-6.66,3.77-15.32,5.08-25.98h3.28c-.88,7-1.7,13.24-2.46,18.74-.77,5.5-1.59,10.49-2.46,14.99-.88,4.5-1.64,8.94-2.3,13.32-.66,4.38-1.31,9.18-1.97,14.41-.66,5.33-1.2,10.08-1.64,14.24-.44,4.17-.82,8.49-1.15,12.99s-.71,9.33-1.15,14.49c-.44,5.17-1.1,11.24-1.97,18.24h-3.28c.44-3.66.76-7.16.98-10.49.21-3.33.33-6.66.33-9.99,0-11.32-1.97-20.99-5.9-28.98-3.93-7.99-11.15-11.99-21.64-11.99h-21.97Z" style="fill: #e48300;"/>
    <g>
      <path d="M1310.87,798.76c-9.23.31-18.04.72-26.43,1.2-8.39.48-17.94.72-28.63.72-13.01,0-24.81-.56-35.4-1.68-10.59-1.12-21.66-1.68-33.2-1.68-4.2,0-7.92.08-11.17.24-3.25.16-6.45.32-9.6.48-3.15.16-6.45.32-9.91.48-3.46.16-7.39.24-11.8.24l.94-4.79c9.23,0,16.1-2.64,20.61-7.91,4.51-5.27,7.92-14.94,10.23-29l40.91-237.3c.42-2.55.84-5.43,1.26-8.63.42-3.19.63-5.91.63-8.15,0-4.79-.63-8.46-1.89-11.03-1.26-2.55-2.89-4.55-4.88-5.99-2-1.44-4.3-2.31-6.92-2.64-2.62-.31-5.19-.48-7.71-.48l.94-4.79c4.82,0,8.97.08,12.43.24,3.46.16,6.71.4,9.75.72,3.04.32,5.98.56,8.81.72,2.83.16,5.92.24,9.28.24s6.5-.08,9.44-.24c2.94-.16,5.98-.4,9.12-.72,3.15-.31,6.45-.55,9.91-.72,3.46-.16,7.6-.24,12.43-.24l-.94,4.79c-9.23,0-16.1,2.64-20.61,7.9-4.51,5.27-7.92,14.92-10.23,28.96l-36.5,213.96c-.63,3.51-1.26,7.82-1.89,12.93s-.94,9.89-.94,14.35c0,7.66,1.26,13.65,3.78,17.96,2.52,4.31,5.71,7.42,9.6,9.33,3.88,1.92,8.23,3.03,13.06,3.35,4.82.32,9.65.48,14.47.48h8.81c16.78,0,30-5.48,39.65-16.43,9.65-10.95,17.51-28.8,23.6-53.56h3.15l-14.16,76.7Z" style="fill: #e48300;"/>
      <path d="M1399.29,519.75c.42-2.55.84-5.43,1.26-8.63.42-3.19.63-5.91.63-8.15,0-4.79-.63-8.46-1.89-11.03-1.26-2.55-2.89-4.55-4.88-5.99-2-1.44-4.3-2.31-6.92-2.64-2.62-.31-5.19-.48-7.71-.48l.94-4.79c4.82,0,8.97.08,12.43.24,3.46.16,6.71.4,9.75.72,3.04.32,5.98.56,8.81.72,2.83.16,5.92.24,9.28.24s6.5-.08,9.44-.24c2.94-.16,5.98-.4,9.12-.72,3.15-.31,6.45-.55,9.91-.72,3.46-.16,7.6-.24,12.43-.24l-.94,4.79c-9.23,0-16.1,2.64-20.61,7.91-4.51,5.27-7.92,14.94-10.23,29l-40.91,237.3c-.42,2.88-.84,5.83-1.26,8.87-.42,3.04-.63,5.68-.63,7.91,0,4.79.63,8.47,1.89,11.03,1.26,2.56,2.88,4.55,4.88,5.99,1.99,1.44,4.3,2.32,6.92,2.64,2.62.32,5.19.48,7.71.48l-.94,4.79c-4.83,0-9.02-.08-12.59-.24-3.57-.16-6.82-.4-9.75-.72-2.94-.31-5.82-.55-8.65-.72-2.83-.16-5.93-.24-9.28-.24-3.57,0-6.76.08-9.6.24-2.83.17-5.82.4-8.97.72-3.15.32-6.5.56-10.07.72-3.57.16-7.66.24-12.27.24l.94-4.79c9.23,0,16.1-2.64,20.61-7.91,4.51-5.27,7.92-14.94,10.23-29l40.91-237.3Z" style="fill: #e48300;"/>
      <path d="M1646.91,592.62c0,24.93-2.99,49.94-8.97,75.03-5.98,25.09-14.27,47.78-24.86,68.07-10.59,20.3-23.24,36.76-37.92,49.38-14.69,12.63-30.84,18.94-48.46,18.94-10.07,0-19.56-2.48-28.48-7.43-8.92-4.95-16.79-12.46-23.6-22.53-6.82-10.07-12.22-22.93-16.2-38.59-3.99-15.66-5.98-34.19-5.98-55.61,0-31,3.78-59.28,11.33-84.85,7.55-25.57,17.25-47.54,29.11-65.92,11.85-18.37,25.02-32.6,39.49-42.67,14.47-10.07,28.63-15.1,42.48-15.1,11.53,0,21.81,3.2,30.84,9.59,9.02,6.4,16.57,15.1,22.66,26.13,6.08,11.03,10.7,23.9,13.84,38.59,3.15,14.7,4.72,30.37,4.72,46.98ZM1617.02,570.77c0-16.25-1.16-30.1-3.46-41.58-2.31-11.47-5.35-20.87-9.12-28.19-3.78-7.33-8.18-12.67-13.21-16.01-5.04-3.34-10.18-5.02-15.42-5.02-8.39,0-16.52,3.35-24.39,10.04-7.87,6.7-15.21,15.69-22.03,27-6.82,11.31-13.01,24.46-18.56,39.43-5.56,14.98-10.28,30.75-14.16,47.32-3.88,16.57-6.92,33.46-9.12,50.67-2.2,17.21-3.3,33.61-3.3,49.22,0,18.49,1.31,33.7,3.93,45.65,2.62,11.95,5.98,21.35,10.07,28.19,4.09,6.85,8.6,11.56,13.53,14.1,4.93,2.55,9.7,3.82,14.32,3.82,8.6,0,16.83-3.27,24.7-9.8,7.87-6.53,15.15-15.45,21.87-26.76,6.71-11.31,12.79-24.45,18.25-39.43,5.45-14.97,10.12-30.75,14-47.32,3.88-16.57,6.87-33.54,8.97-50.9,2.09-17.36,3.15-34.17,3.15-50.43Z" style="fill: #e48300;"/>
    </g>
  </g>
  <g id="Informative">
    <g>
      <rect x="1200.76" y="420.15" width="544.7" height="119.85" style="fill: none;"/>
      <path d="M1215.23,420.29c1.73,0,3.36.29,4.9.88,1.54.59,2.89,1.43,4.07,2.52s2.11,2.41,2.79,3.96c.68,1.55,1.03,3.27,1.03,5.17s-.34,3.68-1.03,5.22c-.68,1.54-1.61,2.84-2.77,3.92-1.16,1.08-2.52,1.91-4.07,2.48-1.55.58-3.19.86-4.91.86-1.85,0-3.55-.29-5.11-.88-1.56-.59-2.92-1.43-4.07-2.52-1.15-1.09-2.05-2.41-2.7-3.96-.65-1.55-.97-3.28-.97-5.2s.32-3.5.97-5.02c.65-1.52,1.54-2.84,2.68-3.94,1.14-1.1,2.5-1.96,4.07-2.57,1.57-.61,3.28-.92,5.13-.92ZM1215.23,420.94c-1.42,0-2.67.33-3.76.99-1.09.66-2,1.54-2.74,2.64-.73,1.1-1.28,2.37-1.66,3.81-.37,1.44-.56,2.92-.56,4.46,0,1.63.19,3.16.56,4.6.37,1.44.92,2.69,1.66,3.76s1.64,1.91,2.74,2.53c1.09.62,2.35.93,3.76.93s2.55-.31,3.62-.92c1.07-.61,1.97-1.44,2.72-2.5.74-1.05,1.31-2.31,1.71-3.76.4-1.45.59-3,.59-4.65s-.2-3.17-.59-4.62c-.4-1.45-.97-2.71-1.71-3.79-.74-1.08-1.65-1.93-2.72-2.55-1.07-.62-2.27-.94-3.62-.94Z" style="fill: #fff8fc;"/>
      <path d="M1232.22,422.83c-.12-.28-.29-.49-.5-.63-.22-.14-.47-.23-.76-.27s-.61-.05-.97-.05v-.36c.89-.07,1.79-.22,2.72-.43.92-.22,1.83-.49,2.72-.83v22.14c0,.48.06.85.18,1.12.12.26.29.47.5.61s.47.23.76.27.61.05.97.05v.36c-.58,0-1.04,0-1.4-.02-.36-.01-.67-.02-.94-.04-.26-.01-.52-.02-.76-.04-.24-.01-.52-.02-.83-.02-.34,0-.62,0-.85.02-.23.01-.47.02-.74.04-.26.01-.58.02-.94.04-.36.01-.83.02-1.4.02v-.36c.36,0,.68-.02.97-.05s.54-.13.76-.27c.22-.14.38-.35.5-.61.12-.26.18-.64.18-1.12v-18.47c0-.46-.06-.82-.18-1.1Z" style="fill: #fff8fc;"/>
      <path d="M1242.41,432.46c0-.46-.06-.82-.18-1.1s-.29-.49-.5-.63c-.22-.14-.47-.23-.76-.27-.29-.04-.61-.05-.97-.05v-.36c.89-.07,1.79-.22,2.72-.43.92-.22,1.83-.49,2.72-.83v13.61c0,.48.06.85.18,1.12.12.26.29.47.5.61s.47.23.76.27.61.05.97.05v.36c-.58,0-1.04,0-1.4-.02-.36-.01-.67-.02-.94-.04-.26-.01-.52-.02-.76-.04-.24-.01-.52-.02-.83-.02-.34,0-.62,0-.85.02-.23.01-.47.02-.74.04-.26.01-.58.02-.94.04-.36.01-.83.02-1.4.02v-.36c.36,0,.68-.02.97-.05s.54-.13.76-.27c.22-.14.38-.35.5-.61.12-.26.18-.64.18-1.12v-9.94ZM1243.45,421.37c.55,0,1.02.19,1.4.58.38.38.58.85.58,1.4s-.19,1.02-.58,1.4c-.38.38-.85.58-1.4.58s-1.02-.19-1.4-.58-.58-.85-.58-1.4.19-1.02.58-1.4c.38-.38.85-.58,1.4-.58Z" style="fill: #fff8fc;"/>
      <path d="M1248.46,429.22c.48,0,.87,0,1.17.02s.57.02.81.04c.24.01.47.02.7.04.23.01.52.02.88.02s.67,0,.92-.02c.25-.01.5-.02.76-.04.25-.01.53-.02.85-.04s.71-.02,1.19-.02v.36c-.41,0-.8.09-1.19.27s-.58.53-.58,1.06c0,.31.06.61.18.9l3.92,9.76,3.6-9.43c.17-.46.25-.85.25-1.19,0-.5-.19-.86-.58-1.06-.38-.2-.83-.31-1.33-.31v-.36c.36,0,.65,0,.86.02.22.01.41.02.58.04.17.01.33.02.49.04.16.01.33.02.52.02s.36,0,.5-.02c.14-.01.29-.02.45-.04.16-.01.34-.02.56-.04s.48-.02.79-.02v.36c-.55,0-1.01.2-1.39.59s-.73,1.01-1.06,1.85l-5.08,13.32h-.68l-5.15-12.42c-.14-.34-.31-.7-.49-1.1-.18-.4-.38-.76-.61-1.1-.23-.34-.5-.61-.81-.83-.31-.22-.66-.32-1.04-.32v-.36Z" style="fill: #fff8fc;"/>
      <path d="M1279.99,442.36c-.26.31-.58.64-.95.97-.37.34-.81.65-1.31.94s-1.07.52-1.69.7c-.62.18-1.32.27-2.09.27-1.01,0-1.99-.17-2.93-.52s-1.79-.86-2.52-1.53c-.73-.67-1.33-1.51-1.78-2.5-.46-1-.68-2.13-.68-3.4,0-1.15.2-2.23.61-3.24.41-1.01.98-1.9,1.71-2.66.73-.77,1.59-1.37,2.57-1.82.98-.44,2.05-.67,3.2-.67.84,0,1.65.14,2.43.41.78.28,1.46.67,2.05,1.17.59.5,1.07,1.1,1.46,1.8.38.7.6,1.45.65,2.27,0,.14,0,.28-.02.4-.01.12-.08.18-.2.18h-10.91c-.05.34-.08.69-.11,1.07-.02.37-.04.73-.04,1.07,0,2.31.5,4.08,1.51,5.31s2.32,1.84,3.92,1.84c.65,0,1.22-.08,1.73-.24.5-.16.95-.35,1.35-.59.4-.23.74-.48,1.03-.75.29-.27.54-.51.76-.73l.25.25ZM1277.04,434.58c.38,0,.58-.19.58-.58,0-.46-.05-.95-.16-1.49-.11-.54-.29-1.04-.56-1.49-.26-.46-.62-.83-1.08-1.13-.46-.3-1.04-.45-1.76-.45-.82,0-1.49.17-2.02.52-.53.35-.95.79-1.28,1.31-.32.53-.56,1.09-.72,1.67-.16.59-.28,1.13-.38,1.64h7.38Z" style="fill: #fff8fc;"/>
      <path d="M1288.81,443.51c.12.26.29.47.5.61.22.14.47.23.76.27s.61.05.97.05v.36c-.58,0-1.04,0-1.4-.02-.36-.01-.67-.02-.94-.04-.26-.01-.52-.02-.76-.04-.24-.01-.52-.02-.83-.02-.34,0-.62,0-.85.02-.23.01-.47.02-.74.04-.26.01-.58.02-.94.04-.36.01-.83.02-1.4.02v-.36c.36,0,.68-.02.97-.05s.54-.13.76-.27.38-.35.5-.61c.12-.26.18-.64.18-1.12v-9.83c0-.94-.23-1.54-.68-1.8-.46-.26-1.03-.4-1.73-.4v-.36c.84-.1,1.65-.26,2.43-.49.78-.23,1.55-.51,2.32-.85.14.53.26,1.15.34,1.85.08.71.14,1.37.16,2,.53-1.18,1.22-2.11,2.07-2.81.85-.7,1.83-1.04,2.93-1.04.24,0,.51.03.81.09.3.06.58.16.83.31s.46.34.63.58.25.54.25.9c0,.34-.1.62-.29.85-.19.23-.49.34-.9.34-.34,0-.61-.1-.81-.29-.2-.19-.36-.41-.47-.67-.11-.25-.19-.48-.23-.68-.05-.2-.1-.33-.14-.38-.19-.14-.43-.22-.72-.22-.5,0-.98.17-1.44.5-.46.34-.86.76-1.21,1.26s-.62,1.06-.83,1.66c-.2.6-.31,1.16-.31,1.69v7.78c0,.48.06.85.18,1.12Z" style="fill: #fff8fc;"/>
      <path d="M1328.52,421.08c-1.42.02-2.39.74-2.92,2.16l-8.06,22h-.58l-8.42-21.35c-.19-.46-.37-.86-.52-1.21-.16-.35-.35-.64-.59-.88-.24-.24-.52-.42-.85-.54-.32-.12-.74-.18-1.24-.18v-.36c.72,0,1.3,0,1.75.02.44.01.82.02,1.13.04.31.01.59.02.83.04.24.01.53.02.86.02s.62,0,.86-.02c.24-.01.52-.02.83-.04.31-.01.7-.02,1.15-.04.46-.01,1.07-.02,1.84-.02v.36c-.31.02-.62.05-.92.09-.3.04-.57.11-.81.22s-.43.27-.58.49c-.14.22-.22.52-.22.9,0,.24.04.49.11.74s.14.49.22.7l6.26,16.13,5.8-15.8c.1-.26.17-.52.23-.77.06-.25.09-.5.09-.74,0-.36-.07-.67-.22-.92-.14-.25-.34-.46-.58-.61-.24-.16-.51-.26-.81-.32-.3-.06-.59-.09-.88-.09v-.36c.5,0,.92,0,1.24.02.32.01.61.02.85.04.24.01.45.02.63.04.18.01.38.02.59.02.24,0,.45,0,.63-.02.18-.01.37-.02.58-.04s.44-.02.7-.04c.26-.01.6-.02,1.01-.02v.36Z" style="fill: #fff8fc;"/>
      <path d="M1341.41,442.36c-.26.31-.58.64-.95.97-.37.34-.81.65-1.31.94s-1.07.52-1.69.7c-.62.18-1.32.27-2.09.27-1.01,0-1.99-.17-2.93-.52s-1.79-.86-2.52-1.53c-.73-.67-1.33-1.51-1.78-2.5-.46-1-.68-2.13-.68-3.4,0-1.15.2-2.23.61-3.24.41-1.01.98-1.9,1.71-2.66.73-.77,1.59-1.37,2.57-1.82.98-.44,2.05-.67,3.2-.67.84,0,1.65.14,2.43.41.78.28,1.46.67,2.05,1.17.59.5,1.07,1.1,1.46,1.8.38.7.6,1.45.65,2.27,0,.14,0,.28-.02.4-.01.12-.08.18-.2.18h-10.91c-.05.34-.08.69-.11,1.07-.02.37-.04.73-.04,1.07,0,2.31.5,4.08,1.51,5.31s2.32,1.84,3.92,1.84c.65,0,1.22-.08,1.73-.24.5-.16.95-.35,1.35-.59.4-.23.74-.48,1.03-.75.29-.27.54-.51.76-.73l.25.25ZM1338.46,434.58c.38,0,.58-.19.58-.58,0-.46-.05-.95-.16-1.49-.11-.54-.29-1.04-.56-1.49-.26-.46-.62-.83-1.08-1.13-.46-.3-1.04-.45-1.76-.45-.82,0-1.49.17-2.02.52-.53.35-.95.79-1.28,1.31-.32.53-.56,1.09-.72,1.67-.16.59-.28,1.13-.38,1.64h7.38Z" style="fill: #fff8fc;"/>
      <path d="M1354.33,428.83c0,.46,0,.83-.02,1.12-.01.29-.02.6-.02.94s0,.74.02,1.21c.01.47.02.94.02,1.42h-.43c0-.45-.08-.92-.23-1.41-.16-.49-.38-.93-.68-1.34-.3-.4-.68-.74-1.15-1-.47-.26-1.01-.39-1.64-.39-.77,0-1.39.23-1.87.68-.48.45-.72.99-.72,1.61,0,.57.16,1.06.49,1.47s.73.76,1.21,1.07c.48.31,1.01.59,1.58.84.58.25,1.1.52,1.58.81,1.08.62,1.92,1.28,2.52,1.98.6.7.9,1.6.9,2.7,0,.82-.16,1.52-.47,2.11-.31.59-.72,1.07-1.22,1.46-.5.38-1.07.67-1.69.86s-1.24.29-1.84.29c-.7,0-1.4-.1-2.12-.31s-1.36-.51-1.91-.92l-.58.9h-.36c0-.53,0-.97.02-1.33.01-.36.02-.74.02-1.15s-.01-.79-.04-1.15c-.02-.36-.04-.78-.04-1.26h.43c0,.6.1,1.18.31,1.75.2.56.5,1.06.88,1.49.38.43.85.78,1.39,1.04.54.26,1.15.4,1.82.4.36,0,.72-.07,1.08-.2.36-.13.68-.32.97-.58s.53-.55.72-.88c.19-.34.29-.72.29-1.15,0-.5-.11-.94-.34-1.31-.23-.37-.53-.7-.9-.99-.37-.29-.78-.55-1.22-.77-.44-.23-.88-.46-1.31-.7-.5-.29-1-.57-1.49-.85-.49-.28-.92-.61-1.3-.99-.37-.38-.67-.83-.9-1.35-.23-.52-.34-1.13-.34-1.85,0-.65.12-1.24.36-1.76.24-.53.56-.98.97-1.35.41-.37.87-.65,1.39-.85.52-.19,1.06-.29,1.64-.29.82,0,1.47.09,1.96.27.49.18.92.37,1.28.56l.68-.83h.32Z" style="fill: #fff8fc;"/>
      <path d="M1365.45,445.24c-.84,0-1.54-.12-2.09-.36-.55-.24-.99-.57-1.31-.99-.32-.42-.55-.91-.68-1.46-.13-.55-.2-1.14-.2-1.76v-10.73h-2.05v-.36c1.01-.36,1.94-.96,2.79-1.8.85-.84,1.48-1.76,1.89-2.77h.4v4.39h3.74v.54h-3.74v9.78c0,.55.02,1.09.05,1.63.04.54.13,1.02.29,1.45s.39.78.7,1.04c.31.26.74.39,1.3.39.67,0,1.21-.14,1.6-.43.4-.29.73-.62.99-1.01l.29.22c-.34.55-.82,1.06-1.46,1.53-.64.47-1.47.7-2.5.7Z" style="fill: #fff8fc;"/>
      <path d="M1385,442.36c-.26.31-.58.64-.95.97-.37.34-.81.65-1.31.94s-1.07.52-1.69.7c-.62.18-1.32.27-2.09.27-1.01,0-1.99-.17-2.93-.52s-1.79-.86-2.52-1.53c-.73-.67-1.33-1.51-1.78-2.5-.46-1-.68-2.13-.68-3.4,0-1.15.2-2.23.61-3.24.41-1.01.98-1.9,1.71-2.66.73-.77,1.59-1.37,2.57-1.82.98-.44,2.05-.67,3.2-.67.84,0,1.65.14,2.43.41.78.28,1.46.67,2.05,1.17.59.5,1.07,1.1,1.46,1.8.38.7.6,1.45.65,2.27,0,.14,0,.28-.02.4-.01.12-.08.18-.2.18h-10.91c-.05.34-.08.69-.11,1.07-.02.37-.04.73-.04,1.07,0,2.31.5,4.08,1.51,5.31s2.32,1.84,3.92,1.84c.65,0,1.22-.08,1.73-.24.5-.16.95-.35,1.35-.59.4-.23.74-.48,1.03-.75.29-.27.54-.51.76-.73l.25.25ZM1382.05,434.58c.38,0,.58-.19.58-.58,0-.46-.05-.95-.16-1.49-.11-.54-.29-1.04-.56-1.49-.26-.46-.62-.83-1.08-1.13-.46-.3-1.04-.45-1.76-.45-.82,0-1.49.17-2.02.52-.53.35-.95.79-1.28,1.31-.32.53-.56,1.09-.72,1.67-.16.59-.28,1.13-.38,1.64h7.38Z" style="fill: #fff8fc;"/>
      <path d="M1393.82,443.51c.12.26.29.47.5.61.22.14.47.23.76.27s.61.05.97.05v.36c-.58,0-1.04,0-1.4-.02-.36-.01-.67-.02-.94-.04-.26-.01-.52-.02-.76-.04-.24-.01-.52-.02-.83-.02-.34,0-.62,0-.85.02-.23.01-.47.02-.74.04-.26.01-.58.02-.94.04-.36.01-.83.02-1.4.02v-.36c.36,0,.68-.02.97-.05s.54-.13.76-.27.38-.35.5-.61c.12-.26.18-.64.18-1.12v-9.83c0-.94-.23-1.54-.68-1.8-.46-.26-1.03-.4-1.73-.4v-.36c.84-.1,1.65-.26,2.43-.49.78-.23,1.55-.51,2.32-.85.14.53.26,1.15.34,1.85.08.71.14,1.37.16,2,.53-1.18,1.22-2.11,2.07-2.81.85-.7,1.83-1.04,2.93-1.04.24,0,.51.03.81.09.3.06.58.16.83.31s.46.34.63.58.25.54.25.9c0,.34-.1.62-.29.85-.19.23-.49.34-.9.34-.34,0-.61-.1-.81-.29-.2-.19-.36-.41-.47-.67-.11-.25-.19-.48-.23-.68-.05-.2-.1-.33-.14-.38-.19-.14-.43-.22-.72-.22-.5,0-.98.17-1.44.5-.46.34-.86.76-1.21,1.26s-.62,1.06-.83,1.66c-.2.6-.31,1.16-.31,1.69v7.78c0,.48.06.85.18,1.12Z" style="fill: #fff8fc;"/>
      <path d="M1414.85,431.13c.46.53.8,1.09,1.03,1.69.23.6.34,1.2.34,1.8s-.08,1.18-.23,1.82c-.16.64-.46,1.22-.92,1.76s-1.09,1-1.91,1.37c-.82.37-1.87.61-3.17.7-.26.02-.65.04-1.15.04s-1,.04-1.49.13c-.49.08-.92.23-1.28.43-.36.2-.54.52-.54.95,0,.41.19.71.58.9.38.19.86.32,1.44.4.58.07,1.21.11,1.91.13.7.01,1.37.03,2.02.05.91.05,1.78.15,2.61.31.83.16,1.56.43,2.2.83s1.15.92,1.53,1.58c.38.66.58,1.49.58,2.5,0,.91-.2,1.75-.59,2.5-.4.76-.95,1.4-1.66,1.94-.71.54-1.55.97-2.54,1.28-.98.31-2.05.47-3.2.47-1.58,0-2.88-.17-3.87-.52-1-.35-1.78-.77-2.34-1.28-.56-.5-.94-1.05-1.13-1.64-.19-.59-.29-1.12-.29-1.6,0-.38.07-.75.22-1.1.14-.35.34-.65.59-.9s.54-.46.86-.61c.32-.16.67-.23,1.03-.23.41,0,.73.07.95.22s.4.29.52.43c-.62.19-1.09.52-1.4.97-.31.46-.47,1-.47,1.62,0,.34.05.74.16,1.21.11.47.35.92.72,1.35s.91.8,1.62,1.1c.71.3,1.66.45,2.86.45,1.01,0,1.87-.13,2.59-.38s1.32-.58,1.8-.99c.48-.41.83-.86,1.06-1.35.23-.49.34-.99.34-1.49,0-.89-.19-1.58-.56-2.07-.37-.49-.88-.86-1.53-1.1-.65-.24-1.4-.38-2.25-.43-.85-.05-1.75-.08-2.68-.11-.5-.02-1.07-.07-1.69-.13-.62-.06-1.21-.19-1.75-.4-.54-.2-.99-.51-1.35-.92-.36-.41-.54-.97-.54-1.69,0-.84.32-1.56.97-2.16.65-.6,1.48-.96,2.48-1.08-1.18-.41-2.15-1.07-2.92-2-.77-.92-1.15-2.01-1.15-3.26,0-.79.16-1.54.47-2.23.31-.7.75-1.3,1.31-1.82.56-.52,1.25-.92,2.05-1.22.8-.3,1.71-.45,2.72-.45.67,0,1.27.07,1.8.22.53.14.98.31,1.35.5.37.19.68.39.92.59.24.2.43.38.58.52.22-.17.46-.35.72-.56.26-.2.54-.39.85-.56.3-.17.61-.31.94-.43.32-.12.65-.18.99-.18.24,0,.49.04.74.11.25.07.48.17.68.31.2.13.37.3.5.5.13.2.2.44.2.7,0,.77-.36,1.15-1.08,1.15-.34,0-.6-.08-.79-.24s-.35-.34-.49-.53c-.13-.2-.23-.38-.29-.55-.06-.17-.1-.27-.13-.29-.12-.1-.28-.15-.47-.15-.34,0-.68.12-1.04.37-.36.25-.67.5-.94.74ZM1406.35,434.66c0,.98.11,1.81.34,2.47.23.66.51,1.18.85,1.57.33.38.7.65,1.1.81.4.16.76.23,1.1.23.36,0,.74-.08,1.15-.23.41-.16.77-.43,1.1-.81.32-.38.59-.91.81-1.57.22-.66.32-1.48.32-2.47,0-1.08-.11-1.96-.34-2.65s-.51-1.22-.85-1.6c-.34-.38-.7-.64-1.08-.77s-.74-.2-1.08-.2-.71.07-1.12.2-.78.39-1.12.77c-.34.38-.62.92-.85,1.6s-.34,1.57-.34,2.65Z" style="fill: #fff8fc;"/>
      <path d="M1427.8,429.37c-.24,0-.56.02-.97.07-.41.05-.81.13-1.21.23-.4.11-.74.25-1.03.43-.29.18-.43.39-.43.63,0,.05.04.19.13.41.08.23.13.52.13.88,0,.29-.11.57-.32.85-.22.28-.53.41-.94.41-.29,0-.58-.12-.86-.36-.29-.24-.43-.64-.43-1.19s.23-1.01.68-1.39c.46-.37,1.01-.67,1.66-.9.65-.23,1.33-.39,2.03-.49.71-.1,1.31-.14,1.82-.14.82,0,1.59.08,2.32.23.73.16,1.37.43,1.91.81.54.38.97.9,1.28,1.55.31.65.47,1.46.47,2.45v7.88c0,.19.01.41.04.65.02.24.07.47.14.68s.19.4.34.56c.16.16.38.23.67.23s.53-.1.72-.31c.19-.2.35-.4.47-.59l.32.14c-.05.12-.15.29-.31.52-.16.23-.36.46-.61.68s-.55.43-.9.61c-.35.18-.74.27-1.17.27-.7,0-1.28-.23-1.76-.68-.48-.46-.78-1.01-.9-1.66-.84.7-1.72,1.26-2.63,1.69s-1.93.65-3.06.65c-.53,0-1.03-.07-1.49-.22-.47-.14-.88-.37-1.24-.67-.36-.3-.65-.68-.86-1.13-.22-.46-.32-1-.32-1.62,0-.79.22-1.45.65-1.96.43-.52.88-.92,1.33-1.21.72-.48,1.54-.91,2.45-1.28.91-.37,1.82-.76,2.74-1.17.26-.12.54-.25.83-.38s.55-.26.77-.38c.23-.12.41-.23.56-.34.14-.11.22-.22.22-.34v-1.51c0-.24-.02-.56-.05-.97s-.15-.81-.34-1.21c-.19-.4-.51-.74-.95-1.03-.44-.29-1.06-.43-1.85-.43ZM1431.01,435.45c-.7.36-1.45.71-2.27,1.06-.82.35-1.52.73-2.12,1.13-.7.48-1.21,1.02-1.53,1.62-.32.6-.49,1.21-.49,1.84,0,.36.05.71.14,1.04.1.34.24.64.43.92.19.28.43.5.72.67.29.17.63.25,1.04.25.84,0,1.62-.19,2.34-.56.72-.37,1.3-.79,1.73-1.24v-6.73Z" style="fill: #fff8fc;"/>
      <path d="M1444.94,429.37c-.24,0-.56.02-.97.07-.41.05-.81.13-1.21.23-.4.11-.74.25-1.03.43-.29.18-.43.39-.43.63,0,.05.04.19.13.41.08.23.13.52.13.88,0,.29-.11.57-.32.85-.22.28-.53.41-.94.41-.29,0-.58-.12-.86-.36-.29-.24-.43-.64-.43-1.19s.23-1.01.68-1.39c.46-.37,1.01-.67,1.66-.9.65-.23,1.33-.39,2.03-.49.71-.1,1.31-.14,1.82-.14.82,0,1.59.08,2.32.23.73.16,1.37.43,1.91.81.54.38.97.9,1.28,1.55.31.65.47,1.46.47,2.45v7.88c0,.19.01.41.04.65.02.24.07.47.14.68s.19.4.34.56c.16.16.38.23.67.23s.53-.1.72-.31c.19-.2.35-.4.47-.59l.32.14c-.05.12-.15.29-.31.52-.16.23-.36.46-.61.68s-.55.43-.9.61c-.35.18-.74.27-1.17.27-.7,0-1.28-.23-1.76-.68-.48-.46-.78-1.01-.9-1.66-.84.7-1.72,1.26-2.63,1.69s-1.93.65-3.06.65c-.53,0-1.03-.07-1.49-.22-.47-.14-.88-.37-1.24-.67-.36-.3-.65-.68-.86-1.13-.22-.46-.32-1-.32-1.62,0-.79.22-1.45.65-1.96.43-.52.88-.92,1.33-1.21.72-.48,1.54-.91,2.45-1.28.91-.37,1.82-.76,2.74-1.17.26-.12.54-.25.83-.38s.55-.26.77-.38c.23-.12.41-.23.56-.34.14-.11.22-.22.22-.34v-1.51c0-.24-.02-.56-.05-.97s-.15-.81-.34-1.21c-.19-.4-.51-.74-.95-1.03-.44-.29-1.06-.43-1.85-.43ZM1448.14,435.45c-.7.36-1.45.71-2.27,1.06-.82.35-1.52.73-2.12,1.13-.7.48-1.21,1.02-1.53,1.62-.32.6-.49,1.21-.49,1.84,0,.36.05.71.14,1.04.1.34.24.64.43.92.19.28.43.5.72.67.29.17.63.25,1.04.25.84,0,1.62-.19,2.34-.56.72-.37,1.3-.79,1.73-1.24v-6.73Z" style="fill: #fff8fc;"/>
      <path d="M1461,443.51c.12.26.29.47.5.61.22.14.47.23.76.27s.61.05.97.05v.36c-.58,0-1.04,0-1.4-.02-.36-.01-.67-.02-.94-.04-.26-.01-.52-.02-.76-.04-.24-.01-.52-.02-.83-.02-.34,0-.62,0-.85.02-.23.01-.47.02-.74.04-.26.01-.58.02-.94.04-.36.01-.83.02-1.4.02v-.36c.36,0,.68-.02.97-.05s.54-.13.76-.27.38-.35.5-.61c.12-.26.18-.64.18-1.12v-9.83c0-.94-.23-1.54-.68-1.8-.46-.26-1.03-.4-1.73-.4v-.36c.84-.1,1.65-.26,2.43-.49.78-.23,1.55-.51,2.32-.85.14.53.26,1.15.34,1.85.08.71.14,1.37.16,2,.53-1.18,1.22-2.11,2.07-2.81.85-.7,1.83-1.04,2.93-1.04.24,0,.51.03.81.09.3.06.58.16.83.31s.46.34.63.58.25.54.25.9c0,.34-.1.62-.29.85-.19.23-.49.34-.9.34-.34,0-.61-.1-.81-.29-.2-.19-.36-.41-.47-.67-.11-.25-.19-.48-.23-.68-.05-.2-.1-.33-.14-.38-.19-.14-.43-.22-.72-.22-.5,0-.98.17-1.44.5-.46.34-.86.76-1.21,1.26s-.62,1.06-.83,1.66c-.2.6-.31,1.16-.31,1.69v7.78c0,.48.06.85.18,1.12Z" style="fill: #fff8fc;"/>
      <path d="M1481.44,423.82c0-.46-.06-.82-.18-1.1-.12-.28-.29-.49-.5-.63s-.47-.23-.76-.27c-.29-.04-.61-.05-.97-.05v-.36c.89-.07,1.79-.22,2.72-.45.92-.23,1.83-.5,2.72-.81v20.45c0,1.18.22,1.97.67,2.38.44.41,1.07.61,1.89.61v.36c-.62.12-1.35.29-2.18.52s-1.6.45-2.32.67c-.12-.31-.23-.7-.34-1.15-.11-.46-.21-.95-.31-1.48-.55.7-1.22,1.33-2.02,1.89s-1.81.85-3.06.85-2.26-.23-3.17-.68-1.67-1.07-2.29-1.84-1.07-1.66-1.39-2.68c-.31-1.02-.47-2.09-.47-3.22,0-1.03.17-2.03.5-2.99.34-.96.83-1.8,1.48-2.52.65-.72,1.43-1.3,2.36-1.73.92-.43,1.97-.65,3.15-.65,1.06,0,1.94.23,2.66.68.72.46,1.32.95,1.8,1.48v-7.27ZM1472.91,437.05c0,.58.05,1.3.14,2.16s.29,1.69.59,2.48c.3.8.74,1.48,1.31,2.05.58.57,1.36.85,2.34.85,1.15,0,2.13-.44,2.93-1.31.8-.87,1.21-2.21,1.21-4.03v-5.51c0-.48-.1-.97-.29-1.47-.19-.5-.47-.94-.83-1.34-.36-.4-.81-.73-1.35-.98-.54-.25-1.16-.38-1.85-.38-.79,0-1.45.22-1.98.65-.53.44-.96,1-1.3,1.7s-.58,1.5-.72,2.39c-.14.89-.22,1.8-.22,2.72Z" style="fill: #fff8fc;"/>
    </g>
    <rect x="1336.93" y="649.64" width="362.24" height="17.44" style="fill: none;"/>
  </g>
  <g id="Gitter">
    <line x1="761.78" y1="456.48" x2="761.82" y2="1045.76" style="fill: #fff; opacity: .5; stroke: #fff; stroke-miterlimit: 10; stroke-width: 3px;"/>
    <path d="M775.79,456.48c-.37,181.09-.37,361.32,0,542.97" style="fill: #fff; opacity: .5; stroke: #fff; stroke-miterlimit: 10; stroke-width: 3px;"/>
    <line x1="239.53" y1="454.51" x2="1717.65" y2="454.91" style="fill: #fff; opacity: .5; stroke: #fff; stroke-miterlimit: 10; stroke-width: 3px;"/>
    <line x1="1144.23" y1="454.51" x2="1144.26" y2="912.21" style="fill: #fff; opacity: .5; stroke: #fff; stroke-miterlimit: 10; stroke-width: 3px;"/>
    <line x1="559.68" y1="801.88" x2="1473.11" y2="801.79" style="fill: none; opacity: .5; stroke: #fff; stroke-miterlimit: 10; stroke-width: 3px;"/>
    <line x1="425.08" y1="823.34" x2="1773.85" y2="823.33" style="fill: none; opacity: .5; stroke: #fff; stroke-miterlimit: 10; stroke-width: 3px;"/>
    <line x1="1014.04" y1="21.91" x2="1014.04" y2="491.48" style="fill: none; opacity: .5; stroke: #fff; stroke-miterlimit: 10; stroke-width: 3px;"/>
    <line x1="559.74" y1="37.93" x2="559.72" y2="864.36" style="fill: none; opacity: .5; stroke: #fff; stroke-miterlimit: 10; stroke-width: 3px;"/>
    <line x1="1419.66" y1="101.03" x2="348.16" y2="101.03" style="fill: none; opacity: .5; stroke: #fff; stroke-miterlimit: 10; stroke-width: 3px;"/>
    <line x1="1050.72" y1="476.3" x2="1666.52" y2="476.3" style="fill: none; opacity: .5; stroke: #fff; stroke-miterlimit: 10; stroke-width: 3px;"/>
    <line x1="372.26" y1="300.88" x2="372.26" y2="1026.7" style="fill: none; opacity: .5; stroke: #fff; stroke-miterlimit: 10; stroke-width: 3px;"/>
    <line x1="1717.6" y1="174.32" x2="1717.6" y2="1010.6" style="fill: none; opacity: .5; stroke: #fff; stroke-miterlimit: 10; stroke-width: 3px;"/>
    <line x1="273.48" y1="476.3" x2="502.45" y2="476.3" style="fill: none; opacity: .5; stroke: #fff; stroke-miterlimit: 10; stroke-width: 3px;"/>
    <path d="M574.91,102.64c-.37,116.81-.37,233.08,0,350.26" style="fill: #fff; opacity: .5; stroke: #fff; stroke-miterlimit: 10; stroke-width: 3px;"/>
    <line x1="1001.25" y1="57.02" x2="1001.25" y2="456.37" style="fill: none; opacity: .5; stroke: #fff; stroke-miterlimit: 10; stroke-width: 3px;"/>
  </g>
</svg>